/* XPM */
static char * floor_xpm[] = {
"16 16 7 1",
" 	c #171717",
".	c #181818",
"+	c #191919",
"@	c #1A1A1A",
"#	c #1B1B1B",
"$	c #1C1C1C",
"%	c #1D1D1D",
"#$#.   @$#@+.  .",
"$$#+. +$$##$#. .",
"@##@++##@+@$@. +",
"#@@@@###++#$#++#",
"$#@#@#$$##$%$#$$",
"@++#@@$$#$%%$$$$",
"+.+@@@#$$$$%$$$#",
"++@+++@#$$$$$$$$",
"@###+.+#$$$#+.@#",
"@@#$+.+$$$$@.  @",
"++##+.+#$$$$#. @",
"@##@++@#$$$$@..#",
"#$@+@#@#$$$$#@#$",
"##@+@##$$$$$$$$$",
"@###@##$$$$$$$##",
"@###@@#$$$$###@@"};
